<svg width="804" height="298" viewBox="0 0 804 298" fill="none" xmlns="http://www.w3.org/2000/svg">
<path d="M84.2639 122.807V147.424H39.765V166.991H72.5869V190.503H39.765V234.055H8.83667V122.807H84.2639ZM128.218 117.284V234.055H97.2896V117.284H128.218ZM187.016 235.159C178.179 235.159 170.237 233.318 163.189 229.636C156.246 225.954 150.775 220.694 146.778 213.857C142.78 207.019 140.781 198.971 140.781 189.714C140.781 180.561 142.78 172.566 146.778 165.728C150.88 158.89 156.403 153.63 163.346 149.949C170.395 146.267 178.337 144.426 187.174 144.426C196.011 144.426 203.9 146.267 210.844 149.949C217.892 153.63 223.415 158.89 227.412 165.728C231.515 172.566 233.566 180.561 233.566 189.714C233.566 198.866 231.515 206.913 227.412 213.857C223.415 220.694 217.892 225.954 210.844 229.636C203.795 233.318 195.853 235.159 187.016 235.159ZM187.016 208.334C191.329 208.334 194.906 206.756 197.746 203.6C200.692 200.339 202.165 195.71 202.165 189.714C202.165 183.717 200.692 179.141 197.746 175.985C194.906 172.829 191.382 171.251 187.174 171.251C182.966 171.251 179.442 172.829 176.601 175.985C173.761 179.141 172.341 183.717 172.341 189.714C172.341 195.815 173.708 200.444 176.444 203.6C179.179 206.756 182.703 208.334 187.016 208.334ZM376.964 145.53L354.399 234.055H319.683L307.375 180.403L294.593 234.055H260.036L237.628 145.53H268.399L278.34 204.231L291.437 145.53H324.575L338.146 204.389L347.929 145.53H376.964ZM416.692 210.385H451.249V234.055H385.763V122.807H416.692V210.385ZM478.897 137.325C473.427 137.325 469.009 135.852 465.642 132.906C462.381 129.856 460.751 126.068 460.751 121.545C460.751 116.916 462.381 113.076 465.642 110.026C469.009 106.975 473.427 105.45 478.897 105.45C484.262 105.45 488.576 106.975 491.837 110.026C495.203 113.076 496.886 116.916 496.886 121.545C496.886 126.068 495.203 129.856 491.837 132.906C488.576 135.852 484.262 137.325 478.897 137.325ZM494.204 145.53V234.055H463.275V145.53H494.204ZM569.728 144.741C579.933 144.741 588.033 148.16 594.029 154.998C600.026 161.731 603.024 170.883 603.024 182.455V234.055H572.095V186.558C572.095 181.508 570.78 177.563 568.15 174.723C565.52 171.777 561.996 170.304 557.578 170.304C552.949 170.304 549.32 171.777 546.69 174.723C544.06 177.563 542.745 181.508 542.745 186.558V234.055H511.817V145.53H542.745V158.154C545.48 154.156 549.162 150.948 553.791 148.528C558.42 146.004 563.732 144.741 569.728 144.741ZM675.381 234.055L650.923 197.761V234.055H619.994V117.284H650.923V180.246L675.381 145.53H712.464L677.59 190.029L713.095 234.055H675.381ZM759.876 235.159C751.881 235.159 744.727 233.844 738.415 231.214C732.209 228.479 727.264 224.797 723.582 220.168C720.006 215.435 718.007 210.122 717.586 204.231H747.568C747.988 207.071 749.303 209.28 751.512 210.858C753.722 212.436 756.457 213.225 759.718 213.225C762.243 213.225 764.241 212.699 765.714 211.647C767.187 210.595 767.923 209.228 767.923 207.545C767.923 205.336 766.714 203.705 764.294 202.653C761.875 201.601 757.877 200.444 752.301 199.181C745.99 197.919 740.73 196.499 736.522 194.921C732.314 193.343 728.632 190.766 725.476 187.189C722.425 183.612 720.9 178.773 720.9 172.671C720.9 167.411 722.32 162.678 725.16 158.47C728.001 154.156 732.156 150.738 737.626 148.213C743.202 145.688 749.882 144.426 757.667 144.426C769.238 144.426 778.338 147.266 784.966 152.947C791.593 158.627 795.433 166.097 796.485 175.354H768.555C768.029 172.514 766.766 170.357 764.767 168.884C762.874 167.306 760.297 166.517 757.035 166.517C754.511 166.517 752.564 166.991 751.197 167.937C749.934 168.884 749.303 170.199 749.303 171.882C749.303 173.986 750.513 175.617 752.933 176.774C755.352 177.826 759.245 178.931 764.61 180.088C771.027 181.455 776.339 182.981 780.547 184.664C784.86 186.347 788.595 189.082 791.751 192.87C795.012 196.551 796.643 201.601 796.643 208.018C796.643 213.173 795.117 217.802 792.066 221.904C789.121 226.007 784.86 229.268 779.285 231.688C773.815 234.002 767.345 235.159 759.876 235.159Z" fill="url(#paint0_linear_1758_124)"/>
<path d="M43.4869 46.7905C43.4869 49.5994 42.8098 52.2327 41.4555 54.6904C40.1514 57.1481 38.0698 59.1294 35.2108 60.6341C32.402 62.1388 28.8408 62.8912 24.5272 62.8912H15.7245V83.0547H5.19134V30.5394H24.5272C28.59 30.5394 32.0509 31.2416 34.9099 32.646C37.7689 34.0504 39.9006 35.9815 41.305 38.4392C42.7596 40.897 43.4869 43.6807 43.4869 46.7905ZM24.0758 54.3894C26.985 54.3894 29.1417 53.7374 30.5462 52.4333C31.9506 51.079 32.6528 49.1981 32.6528 46.7905C32.6528 41.6744 29.7938 39.1164 24.0758 39.1164H15.7245V54.3894H24.0758ZM69.4736 83.7318C65.461 83.7318 61.8496 82.8541 58.6395 81.0985C55.4294 79.2928 52.8964 76.7599 51.0406 73.4996C49.2349 70.2393 48.332 66.4775 48.332 62.2141C48.332 57.9507 49.26 54.1888 51.1158 50.9286C53.0218 47.6683 55.6049 45.1604 58.8652 43.4049C62.1255 41.5992 65.7619 40.6963 69.7745 40.6963C73.7872 40.6963 77.4236 41.5992 80.6839 43.4049C83.9441 45.1604 86.5022 47.6683 88.358 50.9286C90.264 54.1888 91.217 57.9507 91.217 62.2141C91.217 66.4775 90.239 70.2393 88.2828 73.4996C86.3768 76.7599 83.7686 79.2928 80.4582 81.0985C77.1979 82.8541 73.5364 83.7318 69.4736 83.7318ZM69.4736 74.5529C71.3796 74.5529 73.1602 74.1015 74.8154 73.1987C76.5208 72.2457 77.875 70.8412 78.8782 68.9854C79.8814 67.1296 80.3829 64.8724 80.3829 62.2141C80.3829 58.2516 79.3296 55.2171 77.223 53.1104C75.1665 50.9536 72.6335 49.8752 69.6241 49.8752C66.6146 49.8752 64.0816 50.9536 62.0251 53.1104C60.0188 55.2171 59.0157 58.2516 59.0157 62.2141C59.0157 66.1766 59.9937 69.2362 61.9499 71.393C63.9562 73.4996 66.4641 74.5529 69.4736 74.5529ZM156.725 41.3735L144.537 83.0547H133.176L125.577 53.938L117.978 83.0547H106.542L94.2788 41.3735H104.962L112.336 73.1234L120.311 41.3735H131.446L139.27 73.0482L146.644 41.3735H156.725ZM201.172 61.3112C201.172 62.816 201.071 64.1702 200.871 65.374H170.4C170.65 68.3835 171.704 70.7409 173.56 72.4463C175.415 74.1517 177.698 75.0043 180.406 75.0043C184.319 75.0043 187.102 73.3241 188.757 69.9635H200.118C198.914 73.9761 196.607 77.2865 193.196 79.8947C189.786 82.4528 185.598 83.7318 180.632 83.7318C176.619 83.7318 173.008 82.8541 169.798 81.0985C166.638 79.2928 164.155 76.7599 162.349 73.4996C160.594 70.2393 159.716 66.4775 159.716 62.2141C159.716 57.9005 160.594 54.1136 162.349 50.8533C164.105 47.5931 166.563 45.0852 169.723 43.3296C172.883 41.5741 176.519 40.6963 180.632 40.6963C184.594 40.6963 188.131 41.549 191.24 43.2544C194.4 44.9598 196.833 47.3924 198.538 50.5524C200.294 53.6622 201.172 57.2484 201.172 61.3112ZM190.262 58.3018C190.212 55.5932 189.234 53.4364 187.328 51.8314C185.422 50.1762 183.09 49.3486 180.331 49.3486C177.723 49.3486 175.516 50.1511 173.71 51.7562C171.955 53.3111 170.876 55.4929 170.475 58.3018H190.262ZM219.393 47.8438C220.747 45.6369 222.503 43.9064 224.66 42.6525C226.867 41.3986 229.374 40.7716 232.183 40.7716V51.8314H229.399C226.089 51.8314 223.581 52.6088 221.876 54.1637C220.221 55.7186 219.393 58.4272 219.393 62.2893V83.0547H208.86V41.3735H219.393V47.8438ZM278.025 61.3112C278.025 62.816 277.925 64.1702 277.724 65.374H247.253C247.504 68.3835 248.557 70.7409 250.413 72.4463C252.269 74.1517 254.551 75.0043 257.259 75.0043C261.172 75.0043 263.956 73.3241 265.611 69.9635H276.972C275.768 73.9761 273.46 77.2865 270.05 79.8947C266.639 82.4528 262.451 83.7318 257.485 83.7318C253.473 83.7318 249.861 82.8541 246.651 81.0985C243.491 79.2928 241.008 76.7599 239.203 73.4996C237.447 70.2393 236.569 66.4775 236.569 62.2141C236.569 57.9005 237.447 54.1136 239.203 50.8533C240.958 47.5931 243.416 45.0852 246.576 43.3296C249.736 41.5741 253.372 40.6963 257.485 40.6963C261.448 40.6963 264.984 41.549 268.094 43.2544C271.254 44.9598 273.686 47.3924 275.392 50.5524C277.147 53.6622 278.025 57.2484 278.025 61.3112ZM267.115 58.3018C267.065 55.5932 266.087 53.4364 264.181 51.8314C262.275 50.1762 259.943 49.3486 257.184 49.3486C254.576 49.3486 252.369 50.1511 250.563 51.7562C248.808 53.3111 247.729 55.4929 247.328 58.3018H267.115ZM283.005 62.0636C283.005 57.8503 283.832 54.1136 285.487 50.8533C287.193 47.5931 289.5 45.0852 292.409 43.3296C295.318 41.5741 298.554 40.6963 302.115 40.6963C304.823 40.6963 307.406 41.2982 309.864 42.502C312.322 43.6557 314.278 45.2106 315.733 47.1667V27.3794H326.416V83.0547H315.733V76.8853C314.429 78.9417 312.598 80.597 310.24 81.8509C307.883 83.1048 305.149 83.7318 302.039 83.7318C298.528 83.7318 295.318 82.829 292.409 81.0233C289.5 79.2176 287.193 76.6846 285.487 73.4244C283.832 70.1139 283.005 66.327 283.005 62.0636ZM315.808 62.2141C315.808 59.656 315.306 57.4742 314.303 55.6685C313.3 53.8126 311.946 52.4082 310.24 51.4552C308.535 50.4521 306.704 49.9505 304.748 49.9505C302.792 49.9505 300.986 50.427 299.331 51.38C297.676 52.333 296.321 53.7374 295.268 55.5932C294.265 57.3989 293.763 59.5557 293.763 62.0636C293.763 64.5715 294.265 66.7784 295.268 68.6844C296.321 70.5403 297.676 71.9698 299.331 72.9729C301.036 73.9761 302.842 74.4777 304.748 74.4777C306.704 74.4777 308.535 74.0012 310.24 73.0482C311.946 72.045 313.3 70.6406 314.303 68.8349C315.306 66.9791 315.808 64.7721 315.808 62.2141ZM365.164 47.4677C366.519 45.4613 368.374 43.8312 370.732 42.5773C373.139 41.3233 375.873 40.6963 378.933 40.6963C382.494 40.6963 385.704 41.5741 388.563 43.3296C391.472 45.0852 393.754 47.5931 395.41 50.8533C397.115 54.0634 397.968 57.8002 397.968 62.0636C397.968 66.327 397.115 70.1139 395.41 73.4244C393.754 76.6846 391.472 79.2176 388.563 81.0233C385.704 82.829 382.494 83.7318 378.933 83.7318C375.823 83.7318 373.089 83.1299 370.732 81.9261C368.425 80.6722 366.569 79.0671 365.164 77.111V83.0547H354.631V27.3794H365.164V47.4677ZM387.209 62.0636C387.209 59.5557 386.682 57.3989 385.629 55.5932C384.626 53.7374 383.271 52.333 381.566 51.38C379.911 50.427 378.105 49.9505 376.149 49.9505C374.243 49.9505 372.437 50.4521 370.732 51.4552C369.077 52.4082 367.722 53.8126 366.669 55.6685C365.666 57.5243 365.164 59.7062 365.164 62.2141C365.164 64.722 365.666 66.9038 366.669 68.7597C367.722 70.6155 369.077 72.045 370.732 73.0482C372.437 74.0012 374.243 74.4777 376.149 74.4777C378.105 74.4777 379.911 73.9761 381.566 72.9729C383.271 71.9698 384.626 70.5403 385.629 68.6844C386.682 66.8286 387.209 64.6217 387.209 62.0636ZM445.497 41.3735L419.691 102.767H408.481L417.509 82.0014L400.807 41.3735H412.619L423.378 70.4901L434.287 41.3735H445.497Z" fill="white"/>
<defs>
<linearGradient id="paint0_linear_1758_124" x1="-82" y1="108" x2="602.212" y2="680.02" gradientUnits="userSpaceOnUse">
<stop stop-color="#FFAB38"/>
<stop offset="0.244879" stop-color="#FB8FA9"/>
<stop offset="0.479167" stop-color="#F18AEE"/>
<stop offset="0.696647" stop-color="#FE9CE1"/>
<stop offset="0.925431" stop-color="#FFA6DB"/>
</linearGradient>
</defs>
</svg>
