<svg width="1387" height="1077" viewBox="0 0 1387 1077" fill="none" xmlns="http://www.w3.org/2000/svg">
<path d="M34.8362 663.308V539.372L234.474 254.653H394.587V534.682H442.822V663.308H394.587V737H244.523V663.308H34.8362ZM256.582 424.144L184.23 534.682H256.582V424.144ZM493.134 485.108C493.134 407.843 509.436 347.103 542.039 302.887C575.089 258.672 625.78 236.565 694.112 236.565C761.998 236.565 812.466 258.896 845.516 303.557C878.565 347.772 895.09 408.289 895.09 485.108C895.09 562.372 878.565 623.336 845.516 667.998C812.466 712.213 761.998 734.32 694.112 734.32C625.78 734.32 575.089 712.213 542.039 667.998C509.436 623.336 493.134 562.372 493.134 485.108ZM748.376 485.108C748.376 449.378 744.803 422.581 737.657 404.716C730.512 386.405 715.997 377.249 694.112 377.249C671.781 377.249 657.043 386.405 649.897 404.716C642.751 422.581 639.178 449.378 639.178 485.108C639.178 521.284 642.751 548.527 649.897 566.839C657.043 584.703 671.781 593.636 694.112 593.636C715.997 593.636 730.512 584.703 737.657 566.839C744.803 548.527 748.376 521.284 748.376 485.108ZM950.098 663.308V539.372L1149.74 254.653H1309.85V534.682H1358.08V663.308H1309.85V737H1159.78V663.308H950.098ZM1171.84 424.144L1099.49 534.682H1171.84V424.144Z" fill="url(#paint0_linear_1758_114)"/>
<path d="M85.7848 981.328H125.956V1005H55.1187V879.108H85.7848V981.328ZM156.005 894.53C150.625 894.53 146.202 892.976 142.734 889.868C139.387 886.64 137.713 882.694 137.713 878.032C137.713 873.249 139.387 869.304 142.734 866.196C146.202 862.968 150.625 861.354 156.005 861.354C161.266 861.354 165.57 862.968 168.917 866.196C172.384 869.304 174.118 873.249 174.118 878.032C174.118 882.694 172.384 886.64 168.917 889.868C165.57 892.976 161.266 894.53 156.005 894.53ZM171.249 904.932V1005H140.582V904.932H171.249ZM254.445 903.856C266.162 903.856 275.487 907.682 282.421 915.333C289.475 922.865 293.002 933.266 293.002 946.537V1005H262.515V950.662C262.515 943.967 260.782 938.766 257.315 935.06C253.848 931.354 249.185 929.5 243.327 929.5C237.468 929.5 232.806 931.354 229.339 935.06C225.872 938.766 224.138 943.967 224.138 950.662V1005H193.472V904.932H224.138V918.202C227.246 913.779 231.431 910.312 236.691 907.801C241.952 905.171 247.87 903.856 254.445 903.856ZM375.465 1005L344.978 963.036V1005H314.312V872.293H344.978V945.641L375.286 904.932H413.125L371.52 955.145L413.484 1005H375.465ZM524.147 903.856C535.863 903.856 545.188 907.682 552.123 915.333C559.176 922.865 562.703 933.266 562.703 946.537V1005H532.217V950.662C532.217 943.967 530.483 938.766 527.016 935.06C523.549 931.354 518.886 929.5 513.028 929.5C507.17 929.5 502.507 931.354 499.04 935.06C495.573 938.766 493.839 943.967 493.839 950.662V1005H463.173V904.932H493.839V918.202C496.948 913.779 501.132 910.312 506.393 907.801C511.653 905.171 517.571 903.856 524.147 903.856ZM629.564 1006.43C619.76 1006.43 610.913 1004.34 603.023 1000.16C595.252 995.974 589.094 989.996 584.551 982.225C580.128 974.453 577.916 965.367 577.916 954.966C577.916 944.684 580.187 935.658 584.731 927.886C589.274 919.996 595.491 913.958 603.381 909.774C611.272 905.589 620.119 903.497 629.923 903.497C639.726 903.497 648.573 905.589 656.464 909.774C664.355 913.958 670.572 919.996 675.115 927.886C679.658 935.658 681.93 944.684 681.93 954.966C681.93 965.248 679.598 974.334 674.936 982.225C670.392 989.996 664.116 995.974 656.105 1000.16C648.215 1004.34 639.368 1006.43 629.564 1006.43ZM629.564 979.893C635.422 979.893 640.384 977.741 644.449 973.437C648.633 969.133 650.725 962.976 650.725 954.966C650.725 946.956 648.693 940.799 644.628 936.494C640.683 932.19 635.781 930.038 629.923 930.038C623.945 930.038 618.983 932.19 615.038 936.494C611.093 940.679 609.12 946.836 609.12 954.966C609.12 962.976 611.033 969.133 614.859 973.437C618.804 977.741 623.706 979.893 629.564 979.893ZM753.971 978.997V1005H738.369C727.251 1005 718.583 1002.31 712.366 996.93C706.149 991.43 703.04 982.523 703.04 970.209V930.397H690.846V904.932H703.04V880.542H733.707V904.932H753.792V930.397H733.707V970.568C733.707 973.557 734.424 975.709 735.859 977.024C737.293 978.339 739.684 978.997 743.032 978.997H753.971ZM859.27 930.397H842.771V1005H812.105V930.397H800.986V904.932H812.105V902.062C812.105 889.748 815.632 880.423 822.686 874.086C829.739 867.63 840.081 864.402 853.71 864.402C855.982 864.402 857.656 864.462 858.732 864.582V890.585C852.873 890.226 848.749 891.063 846.358 893.096C843.966 895.128 842.771 898.775 842.771 904.035V904.932H859.27V930.397ZM919.23 1006.43C909.427 1006.43 900.579 1004.34 892.689 1000.16C884.918 995.974 878.76 989.996 874.217 982.225C869.794 974.453 867.582 965.367 867.582 954.966C867.582 944.684 869.854 935.658 874.397 927.886C878.94 919.996 885.157 913.958 893.047 909.774C900.938 905.589 909.785 903.497 919.589 903.497C929.392 903.497 938.24 905.589 946.13 909.774C954.021 913.958 960.238 919.996 964.781 927.886C969.324 935.658 971.596 944.684 971.596 954.966C971.596 965.248 969.264 974.334 964.602 982.225C960.058 989.996 953.782 995.974 945.772 1000.16C937.881 1004.34 929.034 1006.43 919.23 1006.43ZM919.23 979.893C925.088 979.893 930.05 977.741 934.115 973.437C938.299 969.133 940.392 962.976 940.392 954.966C940.392 946.956 938.359 940.799 934.294 936.494C930.349 932.19 925.447 930.038 919.589 930.038C913.611 930.038 908.649 932.19 904.704 936.494C900.759 940.679 898.786 946.836 898.786 954.966C898.786 962.976 900.699 969.133 904.525 973.437C908.47 977.741 913.372 979.893 919.23 979.893ZM1086.68 904.932V1005H1056.01V991.371C1052.9 995.794 1048.66 999.381 1043.28 1002.13C1038.02 1004.76 1032.16 1006.08 1025.7 1006.08C1018.05 1006.08 1011.3 1004.4 1005.44 1001.05C999.581 997.588 995.038 992.626 991.81 986.17C988.582 979.714 986.968 972.122 986.968 963.395V904.932H1017.45V959.27C1017.45 965.965 1019.19 971.166 1022.66 974.872C1026.12 978.578 1030.79 980.431 1036.64 980.431C1042.62 980.431 1047.34 978.578 1050.81 974.872C1054.28 971.166 1056.01 965.965 1056.01 959.27V904.932H1086.68ZM1169.68 903.856C1181.39 903.856 1190.72 907.682 1197.65 915.333C1204.71 922.865 1208.23 933.266 1208.23 946.537V1005H1177.75V950.662C1177.75 943.967 1176.01 938.766 1172.55 935.06C1169.08 931.354 1164.42 929.5 1158.56 929.5C1152.7 929.5 1148.04 931.354 1144.57 935.06C1141.1 938.766 1139.37 943.967 1139.37 950.662V1005H1108.7V904.932H1139.37V918.202C1142.48 913.779 1146.66 910.312 1151.92 907.801C1157.18 905.171 1163.1 903.856 1169.68 903.856ZM1223.45 954.787C1223.45 944.505 1225.36 935.478 1229.19 927.707C1233.13 919.936 1238.45 913.958 1245.15 909.774C1251.84 905.589 1259.31 903.497 1267.56 903.497C1274.14 903.497 1280.12 904.872 1285.5 907.622C1291 910.372 1295.3 914.078 1298.41 918.74V872.293H1329.08V1005H1298.41V990.653C1295.54 995.436 1291.42 999.261 1286.03 1002.13C1280.77 1005 1274.62 1006.43 1267.56 1006.43C1259.31 1006.43 1251.84 1004.34 1245.15 1000.16C1238.45 995.854 1233.13 989.816 1229.19 982.045C1225.36 974.155 1223.45 965.068 1223.45 954.787ZM1298.41 954.966C1298.41 947.314 1296.26 941.277 1291.95 936.853C1287.77 932.43 1282.63 930.218 1276.53 930.218C1270.43 930.218 1265.23 932.43 1260.93 936.853C1256.74 941.157 1254.65 947.135 1254.65 954.787C1254.65 962.438 1256.74 968.535 1260.93 973.079C1265.23 977.502 1270.43 979.714 1276.53 979.714C1282.63 979.714 1287.77 977.502 1291.95 973.079C1296.26 968.655 1298.41 962.617 1298.41 954.966Z" fill="white"/>
<defs>
<linearGradient id="paint0_linear_1758_114" x1="-6.82196e-06" y1="285.5" x2="1635.5" y2="813" gradientUnits="userSpaceOnUse">
<stop stop-color="#FFAB38"/>
<stop offset="0.291667" stop-color="#FB8FA9"/>
<stop offset="0.479167" stop-color="#F18AEE"/>
<stop offset="0.654481" stop-color="#FE9CE1"/>
<stop offset="0.925431" stop-color="#FFA6DB"/>
</linearGradient>
</defs>
</svg>
