<svg width="1478" height="269" viewBox="0 0 1478 269" fill="none" xmlns="http://www.w3.org/2000/svg">
<path d="M334.32 197L308.137 149.477H300.785V197H270.119V71.1077H321.587C331.511 71.1077 339.939 72.8412 346.874 76.3084C353.927 79.7755 359.188 84.5577 362.655 90.6551C366.122 96.6328 367.856 103.328 367.856 110.74C367.856 119.109 365.464 126.582 360.682 133.157C356.02 139.733 349.085 144.395 339.88 147.145L368.932 197H334.32ZM300.785 127.777H319.794C325.413 127.777 329.598 126.402 332.348 123.652C335.217 120.903 336.652 117.017 336.652 111.996C336.652 107.214 335.217 103.448 332.348 100.698C329.598 97.948 325.413 96.5731 319.794 96.5731H300.785V127.777ZM481.436 145.352C481.436 148.221 481.256 151.21 480.898 154.319H411.495C411.974 160.535 413.946 165.318 417.413 168.665C421 171.893 425.364 173.507 430.505 173.507C438.156 173.507 443.477 170.279 446.465 163.823H479.104C477.43 170.399 474.382 176.317 469.958 181.577C465.654 186.838 460.214 190.962 453.639 193.951C447.063 196.94 439.711 198.435 431.581 198.435C421.777 198.435 413.05 196.342 405.398 192.158C397.746 187.974 391.769 181.996 387.465 174.225C383.161 166.453 381.009 157.367 381.009 146.966C381.009 136.565 383.101 127.478 387.285 119.707C391.589 111.936 397.567 105.958 405.219 101.774C412.87 97.5893 421.658 95.4971 431.581 95.4971C441.265 95.4971 449.873 97.5295 457.405 101.594C464.937 105.659 470.795 111.458 474.98 118.99C479.284 126.522 481.436 135.309 481.436 145.352ZM450.052 137.282C450.052 132.021 448.259 127.837 444.672 124.728C441.085 121.62 436.602 120.066 431.222 120.066C426.081 120.066 421.717 121.56 418.131 124.549C414.664 127.538 412.512 131.782 411.675 137.282H450.052ZM491.516 146.787C491.516 136.505 493.429 127.478 497.255 119.707C501.2 111.936 506.52 105.958 513.215 101.774C519.911 97.5893 527.383 95.4971 535.632 95.4971C542.208 95.4971 548.186 96.872 553.566 99.6217C559.065 102.372 563.369 106.078 566.478 110.74V64.293H597.144V197H566.478V182.653C563.608 187.436 559.484 191.261 554.104 194.131C548.843 197 542.686 198.435 535.632 198.435C527.383 198.435 519.911 196.342 513.215 192.158C506.52 187.854 501.2 181.816 497.255 174.045C493.429 166.155 491.516 157.068 491.516 146.787ZM566.478 146.966C566.478 139.314 564.326 133.277 560.022 128.853C555.837 124.43 550.696 122.218 544.599 122.218C538.502 122.218 533.301 124.43 528.997 128.853C524.812 133.157 522.72 139.135 522.72 146.787C522.72 154.438 524.812 160.535 528.997 165.079C533.301 169.502 538.502 171.714 544.599 171.714C550.696 171.714 555.837 169.502 560.022 165.079C564.326 160.655 566.478 154.617 566.478 146.966ZM634.752 86.5304C629.372 86.5304 624.948 84.9762 621.481 81.8677C618.134 78.6397 616.46 74.6944 616.46 70.0317C616.46 65.2494 618.134 61.3041 621.481 58.1956C624.948 54.9676 629.372 53.3536 634.752 53.3536C640.012 53.3536 644.316 54.9676 647.664 58.1956C651.131 61.3041 652.865 65.2494 652.865 70.0317C652.865 74.6944 651.131 78.6397 647.664 81.8677C644.316 84.9762 640.012 86.5304 634.752 86.5304ZM649.995 96.9317V197H619.329V96.9317H649.995ZM702.885 113.61C706.471 108.11 710.955 103.806 716.335 100.698C721.715 97.4697 727.693 95.8557 734.268 95.8557V128.315H725.839C718.188 128.315 712.449 129.989 708.623 133.337C704.798 136.565 702.885 142.303 702.885 150.553V197H672.219V96.9317H702.885V113.61ZM843.255 145.352C843.255 148.221 843.076 151.21 842.717 154.319H773.315C773.794 160.535 775.766 165.318 779.233 168.665C782.82 171.893 787.184 173.507 792.325 173.507C799.976 173.507 805.296 170.279 808.285 163.823H840.924C839.25 170.399 836.202 176.317 831.778 181.577C827.474 186.838 822.034 190.962 815.459 193.951C808.883 196.94 801.53 198.435 793.401 198.435C783.597 198.435 774.87 196.342 767.218 192.158C759.566 187.974 753.589 181.996 749.285 174.225C744.981 166.453 742.829 157.367 742.829 146.966C742.829 136.565 744.921 127.478 749.105 119.707C753.409 111.936 759.387 105.958 767.039 101.774C774.69 97.5893 783.478 95.4971 793.401 95.4971C803.085 95.4971 811.693 97.5295 819.225 101.594C826.757 105.659 832.615 111.458 836.799 118.99C841.103 126.522 843.255 135.309 843.255 145.352ZM811.872 137.282C811.872 132.021 810.079 127.837 806.492 124.728C802.905 121.62 798.422 120.066 793.042 120.066C787.901 120.066 783.537 121.56 779.951 124.549C776.484 127.538 774.332 131.782 773.495 137.282H811.872ZM853.336 146.966C853.336 136.565 855.428 127.478 859.613 119.707C863.917 111.936 869.835 105.958 877.367 101.774C885.018 97.5893 893.746 95.4971 903.549 95.4971C916.103 95.4971 926.564 98.7849 934.933 105.36C943.421 111.936 948.981 121.202 951.611 133.157H918.972C916.222 125.506 910.902 121.68 903.011 121.68C897.392 121.68 892.909 123.892 889.561 128.315C886.214 132.619 884.54 138.836 884.54 146.966C884.54 155.096 886.214 161.372 889.561 165.796C892.909 170.1 897.392 172.252 903.011 172.252C910.902 172.252 916.222 168.426 918.972 160.775H951.611C948.981 172.491 943.421 181.697 934.933 188.392C926.444 195.087 915.983 198.435 903.549 198.435C893.746 198.435 885.018 196.342 877.367 192.158C869.835 187.974 863.917 181.996 859.613 174.225C855.428 166.453 853.336 157.367 853.336 146.966ZM1023.79 170.997V197H1008.19C997.066 197 988.399 194.31 982.182 188.93C975.965 183.43 972.856 174.523 972.856 162.209V122.397H960.662V96.9317H972.856V72.5424H1003.52V96.9317H1023.61V122.397H1003.52V162.568C1003.52 165.557 1004.24 167.709 1005.67 169.024C1007.11 170.339 1009.5 170.997 1012.85 170.997H1023.79ZM1056.29 86.5304C1050.91 86.5304 1046.49 84.9762 1043.02 81.8677C1039.67 78.6397 1038 74.6944 1038 70.0317C1038 65.2494 1039.67 61.3041 1043.02 58.1956C1046.49 54.9676 1050.91 53.3536 1056.29 53.3536C1061.55 53.3536 1065.86 54.9676 1069.2 58.1956C1072.67 61.3041 1074.4 65.2494 1074.4 70.0317C1074.4 74.6944 1072.67 78.6397 1069.2 81.8677C1065.86 84.9762 1061.55 86.5304 1056.29 86.5304ZM1071.53 96.9317V197H1040.87V96.9317H1071.53ZM1154.73 95.8557C1166.45 95.8557 1175.77 99.6815 1182.71 107.333C1189.76 114.865 1193.29 125.266 1193.29 138.537V197H1162.8V142.662C1162.8 135.967 1161.07 130.766 1157.6 127.06C1154.13 123.354 1149.47 121.5 1143.61 121.5C1137.75 121.5 1133.09 123.354 1129.62 127.06C1126.16 130.766 1124.42 135.967 1124.42 142.662V197H1093.76V96.9317H1124.42V110.202C1127.53 105.779 1131.72 102.312 1136.98 99.8011C1142.24 97.1709 1148.16 95.8557 1154.73 95.8557ZM1252.62 95.4971C1259.67 95.4971 1265.83 96.9317 1271.09 99.8011C1276.47 102.67 1280.59 106.436 1283.46 111.099V96.9317H1314.13V196.821C1314.13 206.026 1312.28 214.336 1308.57 221.748C1304.98 229.28 1299.42 235.258 1291.89 239.681C1284.48 244.105 1275.21 246.317 1264.09 246.317C1249.27 246.317 1237.25 242.79 1228.05 235.736C1218.84 228.802 1213.58 219.357 1212.27 207.401H1242.57C1243.53 211.227 1245.8 214.216 1249.39 216.368C1252.98 218.64 1257.4 219.775 1262.66 219.775C1269 219.775 1274.02 217.922 1277.72 214.216C1281.55 210.629 1283.46 204.831 1283.46 196.821V182.653C1280.47 187.316 1276.35 191.142 1271.09 194.131C1265.83 197 1259.67 198.435 1252.62 198.435C1244.37 198.435 1236.9 196.342 1230.2 192.158C1223.51 187.854 1218.18 181.816 1214.24 174.045C1210.41 166.155 1208.5 157.068 1208.5 146.787C1208.5 136.505 1210.41 127.478 1214.24 119.707C1218.18 111.936 1223.51 105.958 1230.2 101.774C1236.9 97.5893 1244.37 95.4971 1252.62 95.4971ZM1283.46 146.966C1283.46 139.314 1281.31 133.277 1277.01 128.853C1272.82 124.43 1267.68 122.218 1261.58 122.218C1255.49 122.218 1250.29 124.43 1245.98 128.853C1241.8 133.157 1239.71 139.135 1239.71 146.787C1239.71 154.438 1241.8 160.535 1245.98 165.079C1250.29 169.502 1255.49 171.714 1261.58 171.714C1267.68 171.714 1272.82 169.502 1277.01 165.079C1281.31 160.655 1283.46 154.617 1283.46 146.966ZM1350.66 198.435C1345.28 198.435 1340.86 196.88 1337.39 193.772C1334.04 190.544 1332.37 186.599 1332.37 181.936C1332.37 177.154 1334.04 173.149 1337.39 169.921C1340.86 166.693 1345.28 165.079 1350.66 165.079C1355.92 165.079 1360.23 166.693 1363.57 169.921C1367.04 173.149 1368.77 177.154 1368.77 181.936C1368.77 186.599 1367.04 190.544 1363.57 193.772C1360.23 196.88 1355.92 198.435 1350.66 198.435ZM1401.27 198.435C1395.89 198.435 1391.47 196.88 1388 193.772C1384.66 190.544 1382.98 186.599 1382.98 181.936C1382.98 177.154 1384.66 173.149 1388 169.921C1391.47 166.693 1395.89 165.079 1401.27 165.079C1406.53 165.079 1410.84 166.693 1414.19 169.921C1417.65 173.149 1419.39 177.154 1419.39 181.936C1419.39 186.599 1417.65 190.544 1414.19 193.772C1410.84 196.88 1406.53 198.435 1401.27 198.435ZM1451.89 198.435C1446.51 198.435 1442.08 196.88 1438.62 193.772C1435.27 190.544 1433.59 186.599 1433.59 181.936C1433.59 177.154 1435.27 173.149 1438.62 169.921C1442.08 166.693 1446.51 165.079 1451.89 165.079C1457.15 165.079 1461.45 166.693 1464.8 169.921C1468.27 173.149 1470 177.154 1470 181.936C1470 186.599 1468.27 190.544 1464.8 193.772C1461.45 196.88 1457.15 198.435 1451.89 198.435Z" fill="white"/>
<g clip-path="url(#clip0_1758_136)">
<path fill-rule="evenodd" clip-rule="evenodd" d="M115.875 44.875C108.753 44.875 103 50.6406 103 57.75C103 64.8594 108.753 70.625 115.875 70.625H136.273L68.1566 138.782C63.1273 143.811 63.1273 151.939 68.1566 156.968C73.1859 161.997 81.3133 161.997 86.3426 156.968L154.5 88.8512V109.25C154.5 116.371 160.253 122.125 167.375 122.125C174.496 122.125 180.25 116.371 180.25 109.25V57.75C180.25 50.6406 174.496 44.875 167.375 44.875H115.875ZM25.75 57.748C11.5271 57.748 0 69.2752 0 83.498V199.373C0 213.576 11.5271 225.123 25.75 225.123H141.625C155.828 225.123 167.375 213.576 167.375 199.373V160.748C167.375 153.627 161.621 147.873 154.5 147.873C147.379 147.873 141.625 153.627 141.625 160.748V199.373H25.75V83.498H64.375C71.4965 83.498 77.25 77.7445 77.25 70.623C77.25 63.5136 71.4965 57.748 64.375 57.748H25.75Z" fill="url(#paint0_linear_1758_136)"/>
</g>
<defs>
<linearGradient id="paint0_linear_1758_136" x1="-33.1933" y1="44.875" x2="260.628" y2="236.652" gradientUnits="userSpaceOnUse">
<stop stop-color="#FFAB38"/>
<stop offset="0.291667" stop-color="#FB8FA9"/>
<stop offset="0.479167" stop-color="#F18AEE"/>
<stop offset="0.654481" stop-color="#FE9CE1"/>
<stop offset="0.925431" stop-color="#FFA6DB"/>
</linearGradient>
<clipPath id="clip0_1758_136">
<rect width="180.25" height="206" fill="white" transform="translate(0 32)"/>
</clipPath>
</defs>
</svg>
